HIERARCHY
ROOT hip
{
	OFFSET 0.000000 0.000000 0.000000
	CHANNELS 6 Xposition Yposition Zposition Xrotation Zrotation Yrotation 
	JOINT abdomen
	{
		OFFSET 0.000000 3.422050 0.000000
		CHANNELS 3 Xrotation Zrotation Yrotation 
		JOINT chest
		{
			OFFSET 0.000000 8.486693 -0.684411
			CHANNELS 3 Xrotation Zrotation Yrotation 
			JOINT neck
			{
				OFFSET 0.000000 10.266162 -0.273764
				CHANNELS 3 Xrotation Zrotation Yrotation 
				JOINT head
				{
					OFFSET 0.000000 3.148285 0.000000
					CHANNELS 3 Xrotation Zrotation Yrotation 
					End Site
					{
						OFFSET 0.000000 3.148289 0.000000
					}
				}
			}
			JOINT lCollar
			{
				OFFSET 3.422053 6.707223 -0.821293
				CHANNELS 3 Yrotation Zrotation Xrotation 
				JOINT lShldr
				{
					OFFSET 3.285171 0.000000 0.000000
					CHANNELS 3 Zrotation Yrotation Xrotation 
					JOINT lForeArm
					{
						OFFSET 10.129278 0.000000 0.000000
						CHANNELS 3 Yrotation Zrotation Xrotation 
						JOINT lHand
						{
							OFFSET 8.486692 0.000000 0.000000
							CHANNELS 3 Zrotation Yrotation Xrotation 
							End Site
							{
								OFFSET 4.106464 0.000000 0.000000
							}
						}
					}
				}
			}
			JOINT rCollar
			{
				OFFSET -3.558935 6.707223 -0.821293
				CHANNELS 3 Yrotation Zrotation Xrotation 
				JOINT rShldr
				{
					OFFSET -3.148289 0.000000 0.000000
					CHANNELS 3 Zrotation Yrotation Xrotation 
					JOINT rForeArm
					{
						OFFSET -10.266159 0.000000 0.000000
						CHANNELS 3 Yrotation Zrotation Xrotation 
						JOINT rHand
						{
							OFFSET -8.349810 0.000000 0.000000
							CHANNELS 3 Zrotation Yrotation Xrotation 
							End Site
							{
								OFFSET -4.106464 0.000000 0.000000
							}
						}
					}
				}
			}
		}
	}
	JOINT lThigh
	{
		OFFSET 5.338403 -1.642589 1.368821
		CHANNELS 3 Xrotation Zrotation Yrotation 
		JOINT lShin
		{
			OFFSET -2.053232 -20.121670 0.000000
			CHANNELS 3 Xrotation Zrotation Yrotation 
			JOINT lFoot
			{
				OFFSET 0.000000 -19.300380 -1.231939
				CHANNELS 3 Xrotation Yrotation Zrotation 
				End Site
				{
					OFFSET 0.000000 -2.463878 4.653993
				}
			}
		}
	}
	JOINT rThigh
	{
		OFFSET -5.338403 -1.642589 1.368821
		CHANNELS 3 Xrotation Zrotation Yrotation 
		JOINT rShin
		{
			OFFSET 2.053232 -20.121670 0.000000
			CHANNELS 3 Xrotation Zrotation Yrotation 
			JOINT rFoot
			{
				OFFSET 0.000000 -19.300380 -1.231939
				CHANNELS 3 Xrotation Yrotation Zrotation 
				End Site
				{
					OFFSET 0.000000 -2.463878 4.653993
				}
			}
		}
	}
}
MOTION
Frames: 6
Frame Time: 0.033264
0.000000 43.528500 0.000000 0.000000 0.000000 0.000000 0.000000 0.000000 0.000000 0.000000 0.000000 0.000000 0.000000 0.000000 0.000000 0.000000 0.000000 0.000000 0.000000 0.000000 0.000000 0.000000 0.000000 0.000000 0.000000 0.000000 0.000000 0.000000 0.000000 0.000000 0.000000 0.000000 0.000000 0.000000 0.000000 0.000000 0.000000 0.000000 0.000000 0.000000 0.000000 0.000000 0.000000 0.000000 0.000000 0.000000 0.000000 0.000000 0.000000 0.000000 0.000000 0.000000 0.000000 0.000000 0.000000 0.000000 0.000000 0.000000 0.000000 0.000000 
19.995884 19.711861 -0.201249 -56.997211 -0.004609 -179.997498 32.664940 -0.157822 -0.139172 10.800527 -0.590360 -0.833892 -33.000099 0.000000 0.000000 -15.001697 0.000000 0.000000 -29.213696 6.292945 -9.797211 4.741801 -46.505394 -4.893551 -5.424052 9.994156 -11.589607 59.577343 -0.423303 -8.827302 24.849899 -3.897122 -10.069510 -6.301214 56.980518 -5.746699 10.712042 -11.684560 -10.637635 -61.256901 -3.651355 1.485432 -71.617111 37.248810 4.688047 92.664597 26.573217 -2.830162 50.659142 4.157670 12.159710 -71.617981 -37.254005 -4.688659 92.665695 -26.573095 2.824815 50.658764 -4.162313 -12.161426 
19.995884 19.711861 -0.110803 -56.996113 -0.004609 -179.997498 33.109074 -0.157709 -0.139111 9.694029 -0.590232 -0.833936 -32.193535 0.000000 0.000000 -14.460580 0.000000 0.000000 -29.861956 6.225880 -9.518326 4.697108 -45.889828 -4.886586 -5.250501 9.685852 -11.606377 59.461727 -0.610856 -8.891756 25.408857 -3.813620 -9.762707 -6.162946 56.510406 -5.641675 10.712042 -11.684560 -10.637635 -60.969242 -3.525235 1.410576 -71.946114 37.205128 4.502769 92.664597 26.573217 -2.830163 50.659145 4.157670 12.159710 -71.949921 -37.209393 -4.502635 92.665695 -26.573095 2.824815 50.658764 -4.162313 -12.161426 
19.995884 19.711861 -0.020357 -56.996113 -0.004609 -179.997498 33.553303 -0.157597 -0.139049 8.585868 -0.590104 -0.833982 -31.384102 0.000000 0.000000 -13.918628 0.000000 0.000000 -30.510159 6.155642 -9.240100 4.652988 -45.273975 -4.880376 -5.077171 9.377450 -11.622183 59.346317 -0.798550 -8.955838 25.967569 -3.727095 -9.456619 -6.027878 56.040066 -5.539943 10.712042 -11.684561 -10.637636 -60.681736 -3.398725 1.336356 -72.274757 37.160587 4.317901 92.664597 26.573217 -2.830163 50.659142 4.157670 12.159710 -72.281509 -37.163914 -4.317031 92.665703 -26.573097 2.824814 50.658764 -4.162313 -12.161426 
19.995884 19.711861 0.070088 -56.996117 -0.004609 -179.997498 33.997631 -0.157485 -0.138986 7.476247 -0.589977 -0.834031 -30.571878 0.000000 0.000000 -13.375867 0.000000 0.000000 -31.158234 6.082243 -8.962591 4.609417 -44.657867 -4.874898 -4.904055 9.068961 -11.637033 59.231102 -0.986384 -9.019548 26.525995 -3.637560 -9.151294 -5.895876 55.569466 -5.441368 10.712043 -11.684560 -10.637635 -60.394413 -3.271831 1.262774 -72.603050 37.115200 4.133449 92.664597 26.573217 -2.830163 50.659149 4.157670 12.159710 -72.612709 -37.117569 -4.131858 92.665695 -26.573097 2.824816 50.658764 -4.162313 -12.161426 
19.995884 19.711861 0.160534 -56.996113 -0.004609 -179.997498 34.442039 -0.157373 -0.138922 6.365371 -0.589851 -0.834083 -29.756927 0.000000 0.000000 -12.832319 0.000000 0.000000 -31.806143 6.005697 -8.685856 4.566369 -44.041561 -4.870129 -4.731150 8.760401 -11.650933 59.116089 -1.174355 -9.082888 27.084072 -3.545028 -8.846781 -5.766819 55.098618 -5.345831 10.712042 -11.684560 -10.637635 -60.107265 -3.144559 1.189833 -72.930969 37.068970 3.949429 92.664597 26.573215 -2.830160 50.659138 4.157670 12.159709 -72.943565 -37.070389 -3.947132 92.665695 -26.573095 2.824815 50.658756 -4.162313 -12.161426 
